<?xml version="1.0" encoding="UTF-8" standalone="no"?>
<svg
   id="svg3041"
   viewBox="0 0 72.414215 171.99245"
   version="1.1"
   width="72.414215"
   height="171.99245"
   xmlns="http://www.w3.org/2000/svg"
   xmlns:svg="http://www.w3.org/2000/svg"
   xmlns:rdf="http://www.w3.org/1999/02/22-rdf-syntax-ns#"
   xmlns:cc="http://creativecommons.org/ns#"
   xmlns:dc="http://purl.org/dc/elements/1.1/">
  <title
     id="title4094">Traffic Light</title>
  <defs
     id="defs3043" />
  <metadata
     id="metadata1368">
    <rdf:RDF>
      <cc:Work>
        <dc:format>image/svg+xml</dc:format>
        <dc:type
           rdf:resource="http://purl.org/dc/dcmitype/StillImage" />
        <cc:license
           rdf:resource="http://creativecommons.org/publicdomain/zero/1.0/" />
        <dc:publisher>
          <cc:Agent
             rdf:about="http://openclipart.org/">
            <dc:title>Openclipart</dc:title>
          </cc:Agent>
        </dc:publisher>
        <dc:title>Traffic Light</dc:title>
        <dc:date>2013-09-04T18:29:45</dc:date>
        <dc:description>Icon-ized traffic light with each light emphasized</dc:description>
        <dc:source>https://openclipart.org/detail/182934/traffic-light-ryg-by-algotruneman-182934</dc:source>
        <dc:creator>
          <cc:Agent>
            <dc:title>algotruneman</dc:title>
          </cc:Agent>
        </dc:creator>
        <dc:subject>
          <rdf:Bag>
            <rdf:li>caution</rdf:li>
            <rdf:li>go</rdf:li>
            <rdf:li>stop</rdf:li>
            <rdf:li>traffic</rdf:li>
            <rdf:li>traffic light</rdf:li>
            <rdf:li>traffic semaphore</rdf:li>
          </rdf:Bag>
        </dc:subject>
      </cc:Work>
      <cc:License
         rdf:about="http://creativecommons.org/publicdomain/zero/1.0/">
        <cc:permits
           rdf:resource="http://creativecommons.org/ns#Reproduction" />
        <cc:permits
           rdf:resource="http://creativecommons.org/ns#Distribution" />
        <cc:permits
           rdf:resource="http://creativecommons.org/ns#DerivativeWorks" />
      </cc:License>
    </rdf:RDF>
  </metadata>
  <g
     id="g2070"
     transform="translate(79.694907)">
    <path
       id="path1574"
       d="m -78.4878,21.49244 10,-10 h 50 l 10,10 z"
       stroke="#000000"
       stroke-width="1px"
       fill="#4d4d4d" />
    <path
       id="path1572"
       d="m -68.4878,21.49244 h 50 v 140 h -50 z"
       stroke="#000000"
       stroke-width="1px"
       fill="#333333" />
    <path
       id="path1576"
       d="m -58.4878,161.49244 v 10 h 30 v -10 z"
       stroke="#000000"
       stroke-width="1px"
       fill="#4d4d4d" />
    <path
       id="path1578"
       d="m -58.5578,11.56244 v -7.4243 c 11.385,-4.9495 21.43,-4.9495 30.136,0 v 7.4243 z"
       stroke="#000000"
       stroke-width="0.8636px"
       fill="#808080" />
    <path
       id="path1580"
       stroke-linejoin="round"
       style="color:#000000;fill:#220000;fill-opacity:1"
       d="m -23.4878,44.49244 c 0,11.046 -8.9543,20 -20,20 -11.0457,0 -20,-8.9543 -20,-20 0,-11.0457 8.9543,-20 20,-20 11.0457,0 20,8.9543 20,20 z"
       stroke="#ffffff"
       stroke-linecap="round"
       stroke-width="2"
       fill="#808080" />
    <path
       id="path1582"
       stroke-linejoin="round"
       style="color:#000000;fill:#222200;fill-opacity:1"
       d="m -23.4878,88.99244 c 0,11.046 -8.9543,20 -20,20 -11.0457,0 -20,-8.9543 -20,-20 0,-11.0457 8.9543,-20 20,-20 11.0457,0 20,8.9543 20,20 z"
       stroke="#ffffff"
       stroke-linecap="round"
       stroke-width="2"
       fill="#808080" />
    <path
       id="path1625"
       stroke-linejoin="round"
       style="color:#000000;fill:#002200;fill-opacity:1"
       d="m -23.4878,133.49244 c 0,11.046 -8.9543,20 -20,20 -11.0457,0 -20,-8.9543 -20,-20 0,-11.0457 8.9543,-20 20,-20 11.0457,0 20,8.9543 20,20 z"
       stroke="#ffffff"
       stroke-linecap="round"
       stroke-width="2"
       fill="#808080" />
  </g>
</svg>
