<?xml version="1.0" encoding="UTF-8" standalone="no"?>
<svg
   id="svg3041"
   viewBox="0 0 86.975601 171.99245"
   version="1.1"
   width="86.975601"
   height="171.99245"
   xmlns="http://www.w3.org/2000/svg"
   xmlns:svg="http://www.w3.org/2000/svg"
   xmlns:rdf="http://www.w3.org/1999/02/22-rdf-syntax-ns#"
   xmlns:cc="http://creativecommons.org/ns#"
   xmlns:dc="http://purl.org/dc/elements/1.1/">
  <title
     id="title4094">Traffic Light</title>
  <defs
     id="defs3043">
    <filter
       id="filter3948"
       height="2.2"
       width="2.2"
       y="-0.6"
       x="-0.6"
       color-interpolation-filters="sRGB">
      <feGaussianBlur
         id="feGaussianBlur3950"
         stdDeviation="2.375" />
    </filter>
    <filter
       id="filter3975"
       color-interpolation-filters="sRGB"
       x="-0.036330226"
       y="-0.036334707"
       width="1.0726605"
       height="1.0726694">
      <feGaussianBlur
         id="feGaussianBlur3977"
         stdDeviation="0.81075" />
    </filter>
  </defs>
  <g
     id="g2108"
     transform="translate(-92.0006,-0.50755835)">
    <path
       id="path3979"
       d="m 110.4884,22 h 50 v 140 h -50 z"
       stroke="#000000"
       stroke-width="1px"
       fill="#333333" />
    <path
       id="path3981"
       d="m 100.4884,22 10,-10 h 50 l 10,10 z"
       stroke="#000000"
       stroke-width="1px"
       fill="#4d4d4d" />
    <path
       id="path3983"
       d="m 120.4884,162 v 10 h 30 v -10 z"
       stroke="#000000"
       stroke-width="1px"
       fill="#4d4d4d" />
    <path
       id="path3985"
       d="M 120.4184,12.07 V 4.6457 c 11.385,-4.9495 21.43,-4.9495 30.136,0 V 12.07 Z"
       stroke="#000000"
       stroke-width="0.8636px"
       fill="#808080" />
    <path
       id="path3987"
       stroke-linejoin="round"
       style="color:#000000;fill:#220000;fill-opacity:1"
       d="m 155.4884,45 c 0,11.046 -8.9543,20 -20,20 -11.0457,0 -20,-8.9543 -20,-20 0,-11.0457 8.9543,-20 20,-20 11.0457,0 20,8.9543 20,20 z"
       stroke="#ffffff"
       stroke-linecap="round"
       stroke-width="2"
       fill="#808080" />
    <path
       id="path3989"
       stroke-linejoin="round"
       style="color:#000000"
       d="m 155.4884,89.5 c 0,11.046 -8.9543,20 -20,20 -11.0457,0 -20,-8.9543 -20,-20 0,-11.0457 8.9543,-20 20,-20 11.0457,0 20,8.9543 20,20 z"
       stroke="#ffffff"
       stroke-linecap="round"
       stroke-width="2"
       fill="#ffff00" />
    <path
       id="path3991"
       stroke-linejoin="round"
       style="color:#000000;fill:#002200;fill-opacity:1"
       d="m 155.4884,134 c 0,11.046 -8.9543,20 -20,20 -11.0457,0 -20,-8.9543 -20,-20 0,-11.0457 8.9543,-20 20,-20 11.0457,0 20,8.9543 20,20 z"
       stroke="#ffffff"
       stroke-linecap="round"
       stroke-width="2"
       fill="#808080" />
    <g
       id="g3993"
       filter="url(#filter3975)"
       transform="translate(-301.0116,-175.86)">
      <path
         id="path3995"
         d="m 457.82,265.36 h 19.222"
         stroke="#ffff00"
         stroke-linecap="round"
         stroke-width="2"
         fill="none" />
      <path
         id="path3997"
         d="m 451.57,250.29 13.592,-13.592"
         stroke="#ffff00"
         stroke-linecap="round"
         stroke-width="2"
         fill="none" />
      <path
         id="path3999"
         d="M 436.5,244.05 V 224.828"
         stroke="#ffff00"
         stroke-linecap="round"
         stroke-width="2"
         fill="none" />
      <path
         id="path4001"
         d="M 421.43,250.29 407.84,236.7"
         stroke="#ffff00"
         stroke-linecap="round"
         stroke-width="2"
         fill="none" />
      <path
         id="path4003"
         d="M 415.18,265.36 H 395.958"
         stroke="#ffff00"
         stroke-linecap="round"
         stroke-width="2"
         fill="none" />
      <path
         id="path4005"
         d="m 421.43,280.43 -13.592,13.592"
         stroke="#ffff00"
         stroke-linecap="round"
         stroke-width="2"
         fill="none" />
      <path
         id="path4007"
         d="m 436.5,286.68 v 19.222"
         stroke="#ffff00"
         stroke-linecap="round"
         stroke-width="2"
         fill="none" />
      <path
         id="path4009"
         d="m 451.57,280.43 13.592,13.592"
         stroke="#ffff00"
         stroke-linecap="round"
         stroke-width="2"
         fill="none" />
      <path
         id="path4011"
         style="color:#000000"
         d="m 523,230.61 c 0,2.6234 -2.1266,4.75 -4.75,4.75 -2.6234,0 -4.75,-2.1266 -4.75,-4.75 0,-2.6234 2.1266,-4.75 4.75,-4.75 2.6234,0 4.75,2.1266 4.75,4.75 z"
         transform="matrix(2.142,0,0,2.142,-673.58,-228.61)"
         filter="url(#filter3948)"
         fill="#ffffff" />
    </g>
  </g>
  <metadata
     id="metadata1368">
    <rdf:RDF>
      <cc:Work
         rdf:about="">
        <dc:title>Traffic Light</dc:title>
      </cc:Work>
    </rdf:RDF>
  </metadata>
</svg>
